# xmcd
#
# Track frame offsets: 
#        150
#        18198
#        37227
#        69025
#        81562
#        100466
#        133910
#        151393
#
# Disc length: 2297 seconds
#
# Revision: 0
# Processed by: cddbd v1.5.2PL0 Copyright (c) Steve Scherf et al.
# Submitted via: ExactAudioCopy v1.0b4
#
DISCID=6808f708
DTITLE=Ten Years After - Cricklewood Green (LP)
DYEAR=1970
DGENRE=Blues
TTITLE0=Sugar The Road
TTITLE1=Working On The Road
TTITLE2=50,000 Miles Beneath My Brain
TTITLE3=Year 3,000 Blues
TTITLE4=Me And My Baby
TTITLE5=Love Like A Man
TTITLE6=Circles
TTITLE7=As The Sun Still Burns Away
EXTD=
EXTT0=
EXTT1=
EXTT2=
EXTT3=
EXTT4=
EXTT5=
EXTT6=
EXTT7=
PLAYORDER=
